<?xml version="1.0" standalone="no"?>
<!DOCTYPE svg PUBLIC "-//W3C//DTD SVG 20010904//EN"
 "http://www.w3.org/TR/2001/REC-SVG-20010904/DTD/svg10.dtd">
<svg version="1.0" xmlns="http://www.w3.org/2000/svg"
 width="3840.000000pt" height="2160.000000pt" viewBox="0 0 3840.000000 2160.000000"
 preserveAspectRatio="xMidYMid meet">

<g transform="translate(0.000000,2160.000000) scale(0.100000,-0.100000)"
fill="#000000" stroke="none">
<path d="M24698 14585 c-4 -5 -209 -9 -455 -11 -247 -1 -456 -3 -466 -3 -9 -1
-23 -12 -29 -26 -6 -14 -31 -34 -57 -47 -43 -20 -90 -55 -151 -112 -37 -35
-221 -195 -271 -236 -51 -42 -143 -122 -184 -161 -16 -15 -59 -56 -95 -90 -36
-34 -85 -78 -110 -97 -48 -39 -247 -211 -319 -277 -24 -22 -83 -80 -131 -128
-74 -75 -90 -98 -105 -145 -9 -32 -23 -73 -30 -92 -12 -29 -14 -593 -14 -3375
-1 -2278 2 -3361 10 -3405 18 -112 59 -232 88 -257 91 -79 125 -103 144 -107
12 -3 83 -12 157 -21 123 -15 344 -16 2435 -13 1642 3 2309 7 2330 15 17 6 42
14 56 17 26 6 70 37 157 113 24 21 62 54 84 73 23 19 59 52 82 72 23 20 65 56
93 80 29 24 80 66 113 93 34 28 80 67 103 88 23 20 59 52 80 70 20 17 51 45
67 60 16 16 43 39 59 50 66 48 211 173 313 267 20 19 62 55 93 80 69 55 151
136 185 181 20 26 26 47 28 105 4 76 -12 148 -31 141 -15 -5 -25 -41 -26 -97
-1 -25 -7 -57 -14 -72 -16 -35 -106 -114 -151 -133 -31 -13 -337 -15 -2453
-15 -1491 0 -2431 4 -2451 9 -18 6 -48 23 -66 38 -18 15 -41 33 -50 38 -10 6
-23 35 -32 72 -8 34 -24 79 -37 100 l-22 38 0 3375 0 3375 34 89 c35 91 41
100 101 142 85 58 -14 54 1408 61 719 3 1318 5 1332 3 14 -1 527 -5 1140 -8
l1115 -7 63 -61 c67 -66 82 -96 83 -179 0 -27 6 -68 13 -90 l12 -40 13 24 c34
62 20 248 -20 258 -10 3 -23 20 -29 38 -7 21 -24 41 -46 54 -19 11 -34 27 -34
35 0 9 -8 20 -18 25 -10 6 -454 12 -1117 16 -605 3 -1152 7 -1215 7 -146 1
-687 3 -890 2 -85 0 -225 -2 -310 -4 -85 -3 -245 -1 -355 3 -110 5 -203 6
-207 2z"/>
<path d="M10911 14560 c-19 -5 -38 -15 -43 -24 -5 -9 -23 -23 -40 -32 -30 -16
-186 -142 -253 -205 -83 -78 -163 -149 -310 -274 -55 -47 -135 -118 -179 -158
-43 -39 -98 -90 -122 -112 -24 -22 -61 -54 -81 -72 -21 -17 -61 -51 -89 -75
-27 -23 -72 -61 -99 -83 -118 -98 -154 -133 -179 -175 -15 -25 -35 -56 -46
-70 -11 -14 -24 -49 -30 -79 -6 -34 -10 -418 -10 -1038 l0 -984 -25 -24 c-22
-23 -32 -25 -108 -25 -56 0 -89 -5 -103 -14 -21 -16 -25 -14 61 -42 60 -19
117 -71 153 -139 l27 -50 5 -745 5 -745 31 -50 c18 -28 37 -66 43 -87 12 -36
99 -128 122 -128 7 0 40 -14 74 -30 80 -39 163 -49 395 -49 209 -1 307 10 365
40 21 12 62 29 90 40 45 18 54 26 92 92 32 56 44 89 53 152 6 44 18 101 25
127 11 40 14 430 15 2315 1 1451 5 2306 12 2373 14 152 28 187 93 244 90 77
97 79 360 76 127 -1 541 -4 920 -5 380 -2 702 -4 718 -4 19 -1 31 -9 38 -25 6
-13 30 -32 53 -42 35 -16 41 -23 41 -49 0 -17 8 -44 19 -59 17 -26 19 -27 28
-11 11 19 4 80 -13 118 -10 23 -86 77 -108 77 -6 0 -11 5 -11 10 0 6 -9 19
-20 30 -20 20 -33 20 -977 19 -527 -1 -973 -5 -992 -9z"/>
<path d="M14991 14381 c-29 -8 -49 -51 -24 -51 9 0 13 -3 9 -7 -4 -4 -25 -6
-46 -4 -39 2 -40 2 -41 -31 -1 -23 -3 -26 -6 -11 -4 19 -8 21 -24 13 -23 -13
-25 -30 -4 -30 13 0 14 -4 5 -21 -7 -11 -14 -19 -16 -16 -8 8 -54 -39 -54 -54
0 -8 -9 -20 -20 -27 -12 -7 -20 -23 -20 -38 0 -31 20 -28 35 4 7 15 19 22 38
22 27 0 28 2 22 31 -7 30 -6 31 22 25 21 -5 36 -1 56 14 45 36 131 70 165 66
18 -2 32 0 32 5 0 15 42 21 73 9 62 -24 102 -45 115 -62 7 -10 20 -18 28 -18
8 0 14 -4 14 -10 0 -5 8 -10 18 -10 10 0 22 -4 28 -9 5 -5 23 -11 39 -13 20
-2 33 -11 40 -25 11 -26 31 -32 21 -7 -3 9 -6 20 -6 25 0 6 -4 7 -10 4 -5 -3
-10 -1 -10 6 0 6 -8 19 -18 28 -18 16 -35 46 -37 66 -2 24 -27 55 -45 55 -11
0 -24 12 -32 27 -7 15 -24 33 -37 39 -25 13 -268 17 -310 5z"/>
<path d="M13075 14218 c-9 -67 -1 -5270 9 -5295 14 -37 23 -27 31 34 12 97 8
5244 -4 5276 -15 39 -29 33 -36 -15z"/>
<path d="M15192 14209 c2 -6 8 -10 13 -10 5 0 11 4 13 10 2 6 -4 11 -13 11 -9
0 -15 -5 -13 -11z"/>
<path d="M15170 14190 c0 -5 5 -10 10 -10 6 0 10 5 10 10 0 6 -4 10 -10 10 -5
0 -10 -4 -10 -10z"/>
<path d="M15250 14164 c0 -16 27 -43 43 -44 14 0 7 27 -11 43 -23 21 -32 21
-32 1z"/>
<path d="M14951 14144 c-11 -15 -18 -30 -15 -35 7 -12 64 31 64 48 0 22 -27
15 -49 -13z"/>
<path d="M29001 14023 c1 -65 4 -143 8 -173 5 -46 8 -31 13 85 6 144 2 205
-13 205 -5 0 -9 -53 -8 -117z"/>
<path d="M15350 14075 c0 -8 9 -19 20 -25 21 -11 25 -4 14 24 -8 20 -34 21
-34 1z"/>
<path d="M14669 14046 c-16 -17 -29 -36 -29 -42 0 -6 -10 -19 -22 -27 -13 -9
-18 -16 -13 -16 13 -1 65 47 65 58 0 5 14 14 30 20 17 5 30 16 30 24 0 24 -31
15 -61 -17z"/>
<path d="M15470 13986 c0 -14 4 -27 9 -30 12 -8 22 20 15 39 -9 23 -24 18 -24
-9z"/>
<path d="M15440 13944 c0 -14 4 -23 10 -19 6 3 10 15 10 26 0 10 -4 19 -10 19
-5 0 -10 -12 -10 -26z"/>
<path d="M14550 13910 c-8 -5 -12 -12 -9 -15 4 -3 12 1 19 10 14 17 11 19 -10
5z"/>
<path d="M15388 13786 c-10 -7 -18 -18 -18 -25 0 -16 36 3 44 24 7 18 -3 19
-26 1z"/>
<path d="M15341 13724 c0 -11 3 -14 6 -6 3 7 2 16 -1 19 -3 4 -6 -2 -5 -13z"/>
<path d="M15290 13701 c0 -5 5 -13 10 -16 6 -3 10 -2 10 4 0 5 -4 13 -10 16
-5 3 -10 2 -10 -4z"/>
<path d="M29012 13665 c0 -16 2 -22 5 -12 2 9 2 23 0 30 -3 6 -5 -1 -5 -18z"/>
<path d="M20344 13635 c-17 -7 -55 -16 -85 -20 -30 -4 -65 -14 -78 -22 l-25
-16 29 -23 c26 -21 27 -23 12 -39 -10 -9 -17 -21 -17 -26 0 -13 41 -10 69 5
32 18 101 9 123 -15 9 -10 23 -19 31 -19 31 0 47 -13 47 -36 0 -15 6 -24 15
-24 8 0 15 5 15 10 0 6 6 10 14 10 8 0 17 7 20 16 9 22 8 26 -6 18 -6 -4 -16
0 -22 8 -6 9 -20 17 -31 19 -27 6 -27 43 0 47 25 3 75 -37 75 -61 0 -10 9 -18
23 -19 12 -1 29 -2 38 -3 19 -1 49 -29 49 -44 0 -6 6 -11 14 -11 8 0 17 -7 20
-16 10 -25 7 -34 -8 -28 -10 4 -16 -5 -21 -25 -5 -22 -12 -31 -26 -31 -22 0
-36 -27 -22 -41 12 -12 43 -1 43 16 0 15 38 31 48 20 3 -3 1 -15 -6 -25 -16
-26 -16 -27 9 -41 32 -17 36 -2 32 113 -4 123 -16 174 -50 210 -13 14 -33 36
-44 47 -12 14 -31 21 -54 21 -20 0 -48 6 -63 14 -40 20 -132 26 -168 11z"/>
<path d="M29014 13475 c0 -77 2 -107 3 -67 2 40 2 103 0 140 -2 37 -3 4 -3
-73z"/>
<path d="M24762 13554 c-12 -9 -17 -26 -17 -66 1 -86 2 -2481 1 -2628 0 -74 1
-717 3 -1428 l4 -1293 21 -12 c16 -9 390 -11 1597 -9 1557 3 1576 3 1609 23
25 16 30 23 21 32 -9 9 -389 12 -1584 14 -1481 2 -1572 3 -1584 19 -10 14 -13
280 -13 1310 l0 1293 22 15 c20 14 149 16 1188 16 894 0 1169 3 1178 12 18 18
14 46 -7 58 -13 7 -401 10 -1185 10 -1045 0 -1166 2 -1180 16 -14 14 -16 143
-16 1269 0 1126 2 1255 16 1269 8 9 23 16 32 17 9 0 708 0 1552 -1 844 0 1548
3 1564 8 38 10 43 27 14 46 -20 13 -220 15 -1621 19 -1273 3 -1601 1 -1615 -9z"/>
<path d="M11856 13528 c-11 -43 -6 -4434 5 -4467 22 -62 43 -32 46 64 8 263 9
4393 2 4408 -14 24 -45 21 -53 -5z"/>
<path d="M20083 13423 c-4 -10 -12 -21 -19 -26 -7 -4 -23 -25 -35 -46 -11 -21
-35 -45 -52 -52 -17 -8 -33 -20 -35 -26 -7 -23 36 -14 65 13 15 14 35 31 43
38 14 9 60 96 60 111 0 13 -21 3 -27 -12z"/>
<path d="M20240 13390 c-46 -45 -39 -67 10 -33 29 20 40 33 40 51 0 20 -17 14
-50 -18z"/>
<path d="M20570 13406 c0 -8 5 -18 10 -21 6 -3 10 3 10 14 0 12 -4 21 -10 21
-5 0 -10 -6 -10 -14z"/>
<path d="M20600 13369 c0 -5 5 -7 10 -4 6 3 10 8 10 11 0 2 -4 4 -10 4 -5 0
-10 -5 -10 -11z"/>
<path d="M20400 13361 c0 -6 5 -13 10 -16 6 -3 10 1 10 9 0 9 -4 16 -10 16 -5
0 -10 -4 -10 -9z"/>
<path d="M20546 13321 c-4 -7 -5 -15 -2 -18 9 -9 19 4 14 18 -4 11 -6 11 -12
0z"/>
<path d="M29011 13200 c0 -58 -4 -149 -8 -202 -4 -69 -3 -98 5 -98 20 0 24 63
14 235 -8 157 -9 162 -11 65z"/>
<path d="M20056 13194 c-4 -11 -1 -14 11 -12 9 2 18 9 21 16 6 18 -25 15 -32
-4z"/>
<path d="M13906 13184 c-9 -9 -15 -21 -13 -27 6 -20 26 -18 37 3 16 30 -1 47
-24 24z"/>
<path d="M19870 13174 c0 -8 5 -12 10 -9 6 4 8 11 5 16 -9 14 -15 11 -15 -7z"/>
<path d="M20682 13178 c-7 -7 -12 -18 -12 -26 0 -7 -5 -10 -11 -6 -9 5 -10 -4
-4 -32 8 -48 12 -52 30 -33 14 14 24 93 13 104 -2 3 -10 -1 -16 -7z"/>
<path d="M13846 13095 c-4 -19 -10 -35 -14 -35 -5 0 -13 -15 -20 -33 -9 -26
-9 -39 0 -59 12 -24 13 -23 47 44 31 62 33 71 21 93 -18 34 -27 31 -34 -10z"/>
<path d="M19792 13115 c-13 -16 -5 -19 22 -9 9 3 16 10 16 15 0 14 -24 10 -38
-6z"/>
<path d="M14460 13065 c0 -8 7 -15 15 -15 9 0 12 6 9 15 -4 8 -10 15 -15 15
-5 0 -9 -7 -9 -15z"/>
<path d="M20610 13041 c0 -11 4 -22 8 -25 14 -9 35 12 29 28 -9 23 -37 20 -37
-3z"/>
<path d="M13770 13004 c0 -8 5 -12 10 -9 6 4 8 11 5 16 -9 14 -15 11 -15 -7z"/>
<path d="M13781 12895 c-16 -14 -33 -35 -36 -45 -4 -11 -15 -20 -25 -20 -14 0
-21 -11 -28 -47 -5 -27 -8 -64 -7 -83 2 -19 0 -41 -5 -49 -4 -8 -5 -22 -3 -32
10 -37 20 -18 25 45 3 35 13 79 22 97 9 17 16 38 16 46 0 7 3 12 8 11 4 -1 19
4 34 11 20 10 27 22 30 52 2 22 3 39 2 39 -2 0 -16 -11 -33 -25z"/>
<path d="M14315 12901 c-3 -5 -1 -12 5 -16 5 -3 10 1 10 9 0 18 -6 21 -15 7z"/>
<path d="M28916 12891 c-4 -6 -11 -44 -15 -84 -6 -69 -9 -74 -55 -121 -51 -53
-155 -103 -257 -125 -35 -8 -451 -11 -1366 -11 -1228 1 -1316 0 -1334 -16 -18
-16 -19 -36 -19 -328 0 -307 6 -372 34 -395 11 -9 266 -13 973 -16 527 -2 990
-8 1030 -12 66 -7 76 -12 113 -48 22 -21 43 -48 46 -59 3 -12 20 -43 38 -71
l31 -50 0 -691 0 -692 -24 -26 c-13 -14 -29 -35 -35 -47 -13 -26 -85 -82 -136
-105 -31 -15 -137 -17 -1038 -18 -981 -1 -1004 -1 -1018 -20 -11 -16 -14 -88
-14 -402 0 -361 1 -383 19 -405 l19 -24 1394 0 c766 0 1400 -4 1410 -8 9 -5
18 -17 21 -28 3 -11 25 -27 51 -39 25 -10 46 -24 46 -30 0 -6 14 -24 31 -39
25 -23 32 -39 39 -97 13 -90 19 -114 29 -114 18 0 31 55 32 138 1 93 -5 122
-26 122 -8 0 -26 15 -42 34 -15 18 -41 40 -58 49 -16 8 -43 27 -60 41 -16 14
-51 30 -78 36 -30 6 -297 10 -733 10 -453 0 -692 4 -705 10 -27 15 -24 47 9
67 15 9 41 31 58 47 18 17 58 51 89 76 32 25 78 63 102 85 24 22 60 54 81 72
57 50 130 115 171 153 21 19 64 55 96 80 54 42 128 103 171 142 50 44 84 87
103 133 12 27 32 60 44 73 l22 24 0 733 0 733 -23 29 c-12 15 -30 44 -38 63
-9 19 -28 49 -44 65 -15 17 -31 47 -34 68 -6 34 -4 41 26 68 64 59 83 76 126
103 23 16 42 32 42 36 0 4 17 19 39 33 21 14 68 54 105 89 73 68 112 102 193
170 190 159 284 245 292 270 6 16 22 32 36 38 l27 10 -7 98 c-8 106 -17 143
-29 123z"/>
<path d="M13842 12728 c-17 -17 -15 -28 6 -28 19 0 42 18 42 32 0 12 -35 9
-48 -4z"/>
<path d="M13667 12533 c-9 -8 -9 -56 -1 -77 5 -13 8 -13 20 -1 15 14 18 43 8
69 -7 17 -16 20 -27 9z"/>
<path d="M14351 12401 c-1 -32 2 -42 10 -34 7 7 7 21 1 44 l-10 34 -1 -44z"/>
<path d="M13671 12344 c0 -11 3 -14 6 -6 3 7 2 16 -1 19 -3 4 -6 -2 -5 -13z"/>
<path d="M19637 11880 c-6 -23 3 -26 21 -8 16 16 15 28 -2 28 -7 0 -16 -9 -19
-20z"/>
<path d="M14555 11820 c3 -5 11 -10 16 -10 6 0 7 5 4 10 -3 6 -11 10 -16 10
-6 0 -7 -4 -4 -10z"/>
<path d="M19529 11767 c-50 -45 -88 -97 -71 -97 6 0 33 24 62 53 86 87 93 120
9 44z"/>
<path d="M14620 11746 c0 -9 7 -16 16 -16 17 0 14 22 -4 28 -7 2 -12 -3 -12
-12z"/>
<path d="M19373 11604 c-24 -20 -43 -43 -43 -53 0 -9 -5 -22 -10 -27 -7 -7 -6
-11 5 -11 8 0 15 4 15 8 0 4 18 26 40 49 22 23 40 48 40 56 0 18 2 19 -47 -22z"/>
<path d="M19260 11475 c0 -8 5 -15 10 -15 6 0 10 7 10 15 0 8 -4 15 -10 15 -5
0 -10 -7 -10 -15z"/>
<path d="M19197 11429 c-11 -12 -16 -28 -12 -37 6 -15 8 -14 16 6 4 12 15 22
24 22 8 0 15 7 15 15 0 22 -23 18 -43 -6z"/>
<path d="M15031 11204 c0 -11 3 -14 6 -6 3 7 2 16 -1 19 -3 4 -6 -2 -5 -13z"/>
<path d="M7682 11202 c-18 -12 179 -23 216 -12 22 7 16 8 -29 9 -31 1 -83 3
-115 7 -32 3 -65 1 -72 -4z"/>
<path d="M8675 11200 l-70 -5 75 -8 c41 -4 98 -3 125 1 l50 9 -55 4 c-30 2
-86 2 -125 -1z"/>
<path d="M7997 11190 c40 -5 153 -5 250 -1 l178 8 -250 0 c-170 0 -227 -2
-178 -7z"/>
<path d="M8958 11193 c12 -2 30 -2 40 0 9 3 -1 5 -23 4 -22 0 -30 -2 -17 -4z"/>
<path d="M15077 11154 c-14 -14 -7 -30 14 -31 14 -1 19 3 17 14 -3 18 -21 27
-31 17z"/>
<path d="M7378 11136 c-36 -13 -60 -31 -153 -110 -101 -87 -323 -282 -355
-312 -19 -18 -64 -58 -100 -88 -189 -158 -337 -287 -431 -376 -20 -19 -65 -57
-99 -85 -206 -164 -252 -218 -273 -317 -38 -173 -38 -184 -34 -888 3 -583 7
-742 24 -986 19 -253 25 -301 48 -369 14 -43 30 -114 36 -159 8 -59 18 -94 39
-129 16 -26 34 -66 40 -90 7 -23 24 -64 39 -92 16 -27 33 -73 40 -101 7 -28
24 -65 39 -82 15 -17 47 -61 72 -97 111 -162 180 -254 214 -284 10 -9 52 -49
92 -88 41 -40 78 -73 82 -73 5 0 35 -20 66 -45 32 -25 64 -45 70 -45 7 0 25
-13 41 -30 15 -16 49 -37 75 -45 26 -9 55 -24 65 -35 10 -11 38 -27 64 -36 25
-10 55 -25 66 -34 33 -28 56 -37 132 -50 40 -6 77 -18 84 -26 21 -25 47 -35
136 -49 56 -9 97 -22 116 -36 20 -14 54 -24 106 -30 189 -22 249 -32 291 -49
25 -10 88 -23 140 -29 131 -15 947 -35 1100 -28 69 3 220 11 335 16 116 6 246
18 290 27 44 9 99 20 123 25 24 5 47 11 51 13 4 3 50 9 102 15 67 6 108 17
144 35 45 23 86 35 166 51 14 2 43 16 64 31 30 20 113 44 157 44 4 0 21 13 39
30 20 18 52 33 83 40 27 6 64 22 82 35 17 13 56 35 85 48 30 13 60 32 68 41 8
9 30 24 49 32 19 8 51 28 71 44 34 29 171 146 271 231 25 21 68 56 95 79 48
39 74 62 103 92 13 12 67 62 131 121 17 15 51 43 76 62 24 19 53 42 64 52 10
10 42 38 71 63 29 25 71 62 94 82 22 21 57 51 76 68 19 17 55 48 80 70 25 22
95 81 155 131 141 117 303 282 360 367 16 24 37 48 47 53 10 6 16 15 12 20
-13 21 8 80 40 113 23 25 39 57 53 108 11 40 25 72 31 71 7 -2 14 9 17 25 4
15 10 46 16 69 19 84 7 142 -26 130 -14 -6 -16 -21 -13 -107 2 -101 -2 -115
-37 -122 -13 -2 -25 -21 -39 -63 -11 -33 -28 -67 -37 -75 -9 -8 -25 -37 -35
-65 -13 -35 -39 -71 -88 -122 -179 -181 -259 -261 -293 -293 -51 -48 -155
-111 -230 -139 -34 -13 -68 -30 -74 -37 -6 -8 -37 -21 -68 -30 -31 -9 -75 -29
-99 -44 -24 -16 -70 -33 -107 -40 -36 -7 -80 -22 -98 -34 -44 -30 -54 -33
-163 -51 -52 -8 -113 -25 -136 -36 -30 -15 -74 -23 -172 -31 -88 -7 -156 -18
-206 -35 -106 -35 -297 -44 -875 -44 -489 0 -836 11 -858 28 -25 20 -117 43
-169 43 -90 0 -220 20 -268 41 -25 11 -85 27 -133 35 -52 8 -111 26 -145 43
-31 15 -82 34 -112 41 -30 7 -64 20 -75 30 -29 25 -53 36 -115 50 -30 7 -62
19 -72 27 -9 8 -47 27 -85 42 -110 46 -192 106 -341 252 -139 136 -238 251
-251 291 -7 20 -21 48 -31 61 -11 14 -32 53 -47 88 -15 35 -35 75 -45 89 -9
14 -23 59 -29 100 -7 41 -22 98 -35 125 -24 52 -54 253 -54 367 0 32 -9 104
-20 160 -19 98 -20 145 -20 984 l0 881 30 92 c49 154 84 193 180 205 83 10 89
20 31 44 -57 25 -63 26 -113 8z"/>
<path d="M15394 11003 c-3 -16 -15 -33 -27 -38 -31 -15 -32 -34 -3 -45 14 -5
26 -17 26 -25 0 -9 8 -19 18 -22 9 -4 19 -10 22 -13 3 -4 17 -10 31 -13 25 -6
27 -4 33 40 3 26 2 51 -3 56 -13 13 -64 12 -69 -2 -5 -16 -32 -13 -32 4 0 8 9
19 19 25 13 6 17 17 14 30 -9 32 -23 34 -29 3z m86 -104 c0 -30 -14 -39 -23
-15 -8 19 3 57 14 50 5 -3 9 -18 9 -35z"/>
<path d="M15227 10993 c-23 -6 -19 -46 6 -51 14 -3 17 3 15 27 -1 17 -2 30 -3
30 0 -1 -8 -3 -18 -6z"/>
<path d="M14495 10960 c3 -5 8 -10 11 -10 2 0 4 5 4 10 0 6 -5 10 -11 10 -5 0
-7 -4 -4 -10z"/>
<path d="M14520 10931 c0 -12 5 -21 10 -21 6 0 10 6 10 14 0 8 -4 18 -10 21
-5 3 -10 -3 -10 -14z"/>
<path d="M14790 10935 c0 -15 26 -32 36 -23 2 3 2 13 -2 22 -8 20 -34 21 -34
1z"/>
<path d="M15298 10933 c7 -3 16 -2 19 1 4 3 -2 6 -13 5 -11 0 -14 -3 -6 -6z"/>
<path d="M18787 10904 c-16 -14 -26 -29 -22 -32 3 -3 20 8 38 26 38 38 24 43
-16 6z"/>
<path d="M15180 10900 c0 -5 5 -10 10 -10 6 0 10 5 10 10 0 6 -4 10 -10 10 -5
0 -10 -4 -10 -10z"/>
<path d="M15245 10860 c-8 -13 3 -50 15 -50 12 0 23 37 15 50 -3 5 -10 10 -15
10 -5 0 -12 -5 -15 -10z"/>
<path d="M18704 10815 c-17 -13 -17 -14 -2 -15 9 0 20 5 23 11 11 17 0 20 -21
4z"/>
<path d="M14615 10810 c3 -5 14 -10 23 -10 15 0 15 2 2 10 -20 13 -33 13 -25
0z"/>
<path d="M15472 10728 c-7 -7 -12 -16 -12 -21 0 -12 -21 -32 -43 -40 -13 -5
-16 -13 -11 -34 6 -22 2 -31 -22 -50 -24 -19 -26 -23 -10 -23 10 0 41 23 68
50 38 39 51 60 55 90 6 40 -3 50 -25 28z"/>
<path d="M15200 10660 c0 -5 5 -10 10 -10 6 0 10 5 10 10 0 6 -4 10 -10 10 -5
0 -10 -4 -10 -10z"/>
<path d="M15337 10557 c-3 -7 -1 -20 4 -28 6 -11 11 -11 21 -1 10 10 9 15 -4
28 -13 13 -16 13 -21 1z"/>
<path d="M15265 10499 c-4 -6 -5 -12 -2 -15 7 -7 37 7 37 17 0 13 -27 11 -35
-2z"/>
<path d="M18136 10163 c-6 -14 -5 -15 5 -6 7 7 10 15 7 18 -3 3 -9 -2 -12 -12z"/>
<path d="M8307 10114 c-15 -16 2 -938 18 -964 18 -30 24 56 30 435 6 410 0
528 -25 533 -9 1 -19 0 -23 -4z"/>
<path d="M18010 10040 c-8 -5 -11 -12 -7 -16 4 -4 13 -2 19 4 15 15 7 24 -12
12z"/>
<path d="M20220 10005 c0 -8 5 -15 11 -15 8 0 8 -4 -1 -15 -6 -8 -9 -18 -6
-24 3 -5 0 -12 -6 -14 -7 -3 -3 -6 10 -6 13 -1 22 5 22 14 0 8 8 15 18 16 49
3 56 5 59 16 2 6 -9 19 -26 27 -39 21 -81 21 -81 1z"/>
<path d="M20383 9945 c-3 -9 2 -22 13 -30 18 -14 18 -14 -2 -15 -13 0 -24 8
-27 19 -8 31 -91 35 -85 4 2 -9 12 -21 23 -27 11 -6 22 -13 25 -17 3 -3 21
-12 40 -21 19 -9 40 -25 47 -36 19 -31 52 -35 63 -6 12 30 50 33 57 4 3 -11
10 -20 15 -20 8 0 53 -43 60 -58 2 -4 17 -15 33 -24 30 -17 39 -27 50 -62 4
-13 9 -16 15 -10 10 10 -8 64 -22 64 -3 0 -16 15 -27 34 -12 18 -34 39 -50 45
-16 7 -33 23 -39 35 -11 24 -101 105 -139 125 -29 15 -43 14 -50 -4z m78 -78
c-5 -5 -18 -7 -28 -3 -14 6 -15 9 -4 16 19 11 46 1 32 -13z"/>
<path d="M20526 9777 c-21 -16 -16 -44 9 -53 23 -9 27 0 18 35 -7 29 -10 31
-27 18z"/>
<path d="M20760 9610 c0 -5 9 -19 20 -30 11 -11 20 -27 20 -36 0 -8 4 -13 9
-10 14 9 39 -4 44 -22 4 -16 5 -16 6 0 0 9 -10 25 -24 36 -13 11 -30 31 -36
46 -12 25 -39 37 -39 16z"/>
<path d="M20920 9441 c0 -6 5 -13 10 -16 6 -3 10 1 10 9 0 9 -4 16 -10 16 -5
0 -10 -4 -10 -9z"/>
<path d="M20828 9433 c7 -3 16 -2 19 1 4 3 -2 6 -13 5 -11 0 -14 -3 -6 -6z"/>
<path d="M21001 9344 c0 -11 3 -14 6 -6 3 7 2 16 -1 19 -3 4 -6 -2 -5 -13z"/>
<path d="M21070 9282 c0 -10 3 -22 8 -26 4 -4 7 -13 7 -19 0 -7 8 -13 18 -15
21 -4 23 14 2 22 -8 3 -15 14 -15 25 0 11 -4 23 -10 26 -5 3 -10 -2 -10 -13z"/>
<path d="M20980 9280 c0 -5 7 -10 16 -10 8 0 12 5 9 10 -3 6 -10 10 -16 10 -5
0 -9 -4 -9 -10z"/>
<path d="M21146 9194 c-4 -15 -3 -31 1 -35 5 -5 10 7 11 26 3 41 -3 46 -12 9z"/>
<path d="M21134 9126 c-8 -22 3 -33 18 -18 9 9 9 15 0 24 -9 9 -13 7 -18 -6z"/>
<path d="M21227 9124 c-22 -23 16 -78 43 -64 10 5 21 6 25 2 5 -4 5 -2 1 5 -3
6 -20 15 -37 18 -23 5 -28 10 -18 16 10 6 11 11 3 19 -6 6 -13 7 -17 4z"/>
<path d="M21300 9026 c0 -31 6 -34 13 -6 3 11 1 23 -4 26 -5 3 -9 -6 -9 -20z"/>
<path d="M8395 8957 c-8 -81 7 -184 29 -201 8 -6 26 -45 40 -86 14 -41 30 -76
36 -78 6 -2 21 -25 35 -51 22 -45 142 -172 182 -194 10 -6 30 -23 44 -38 14
-15 42 -32 64 -38 21 -5 50 -22 65 -36 16 -15 53 -33 86 -42 32 -8 77 -26 101
-39 67 -40 233 -46 233 -9 0 15 -21 20 -128 30 -78 8 -112 20 -112 40 0 17
-21 27 -95 46 -30 8 -63 25 -81 43 -17 17 -56 49 -85 71 -65 48 -219 202 -219
218 0 7 -18 35 -40 62 -27 34 -40 60 -40 82 0 44 -9 63 -35 73 -26 10 -49 97
-46 173 2 35 -2 47 -13 47 -11 0 -16 -19 -21 -73z"/>
<path d="M21377 8963 c-4 -3 -7 -11 -7 -17 0 -6 5 -5 12 2 6 6 9 14 7 17 -3 3
-9 2 -12 -2z"/>
<path d="M11797 8943 c-10 -9 -9 -153 1 -153 15 0 34 118 22 140 -12 22 -14
23 -23 13z"/>
<path d="M21410 8869 c0 -22 16 -34 24 -17 3 7 2 -6 -1 -29 -3 -26 -2 -43 5
-43 13 0 18 15 21 66 2 39 0 42 -23 42 -18 0 -26 -6 -26 -19z"/>
<path d="M21160 8830 c0 -5 7 -10 15 -10 8 0 15 5 15 10 0 6 -7 10 -15 10 -8
0 -15 -4 -15 -10z"/>
<path d="M28997 8763 c-15 -24 -18 -124 -8 -293 6 -102 12 -269 12 -371 1
-103 5 -192 9 -198 3 -7 10 127 13 296 10 457 9 536 -6 558 -8 10 -17 14 -20
8z"/>
<path d="M13008 8754 c-7 -11 -28 -120 -28 -146 0 -24 29 -35 41 -17 5 8 8 41
8 74 0 62 -11 106 -21 89z"/>
<path d="M11717 8676 c-7 -44 8 -85 25 -68 8 8 8 19 0 39 -6 15 -12 37 -14 48
-3 12 -6 5 -11 -19z"/>
<path d="M11636 8544 c-3 -9 -3 -20 0 -25 9 -15 34 10 27 27 -7 19 -19 18 -27
-2z"/>
<path d="M12990 8511 c-14 -28 -13 -38 12 -71 28 -39 36 -38 44 6 12 63 -30
112 -56 65z"/>
<path d="M11570 8470 c-25 -25 -22 -44 8 -48 16 -3 23 3 28 23 10 39 -9 52
-36 25z"/>
<path d="M16615 8435 c-5 -11 -10 -24 -13 -30 -3 -5 3 -3 13 7 9 9 15 22 12
30 -3 9 -7 7 -12 -7z"/>
<path d="M11492 8394 c-34 -24 -29 -46 11 -42 27 2 33 8 35 31 4 31 -12 35
-46 11z"/>
<path d="M11385 8324 c-16 -9 -36 -23 -42 -32 -7 -9 -36 -27 -65 -41 -60 -30
-70 -47 -34 -57 34 -8 92 12 111 39 8 12 34 31 58 42 49 24 66 65 25 65 -13
-1 -36 -8 -53 -16z"/>
<path d="M16491 8316 c-10 -12 -8 -13 8 -9 12 3 18 9 15 14 -7 12 -10 11 -23
-5z"/>
<path d="M21691 8254 c0 -11 3 -14 6 -6 3 7 2 16 -1 19 -3 4 -6 -2 -5 -13z"/>
<path d="M16396 8211 c-4 -7 -5 -15 -2 -18 9 -9 19 4 14 18 -4 11 -6 11 -12 0z"/>
<path d="M21730 8170 c0 -16 5 -30 10 -30 6 0 10 14 10 30 0 17 -4 30 -10 30
-5 0 -10 -13 -10 -30z"/>
<path d="M11056 8171 c-38 -8 -44 -28 -13 -42 32 -15 120 9 125 34 3 14 -4 17
-40 16 -24 -1 -56 -4 -72 -8z"/>
<path d="M21735 8109 c-3 -9 -2 -32 3 -50 l9 -34 7 32 c8 37 -8 81 -19 52z"/>
<path d="M9350 8095 c-11 -14 -11 -19 4 -33 25 -25 235 -30 289 -8 20 9 37 21
37 26 0 12 -52 20 -110 17 -25 -1 -81 2 -126 6 -69 8 -82 6 -94 -8z"/>
<path d="M10601 8088 c-51 -14 -27 -26 74 -38 131 -14 237 -13 261 4 12 10 16
18 9 24 -14 13 -302 21 -344 10z"/>
<path d="M10102 7991 c-10 -6 -5 -10 17 -14 37 -8 93 2 85 14 -7 11 -85 11
-102 0z"/>
<path d="M21686 7861 c-11 -16 -18 -120 -12 -148 7 -25 9 -26 18 -10 15 27 23
167 10 167 -6 0 -13 -4 -16 -9z"/>
<path d="M29008 7758 c-2 -40 -1 -98 2 -128 6 -42 8 -25 9 73 0 70 -1 127 -3
127 -2 0 -5 -33 -8 -72z"/>
<path d="M15056 7723 c-4 -13 -3 -30 2 -39 8 -15 10 -14 14 3 3 10 2 27 -2 38
-7 19 -7 19 -14 -2z"/>
<path d="M15135 7670 c-4 -7 -3 -16 3 -22 14 -14 45 -2 40 15 -6 16 -34 21
-43 7z"/>
<path d="M14986 7654 c-9 -23 -7 -34 5 -34 5 0 7 5 4 10 -4 6 -1 17 5 25 7 9
8 15 2 15 -5 0 -13 -7 -16 -16z"/>
<path d="M21663 7627 c-15 -33 -16 -66 -4 -86 13 -20 24 22 19 75 l-3 39 -12
-28z"/>
<path d="M14950 7601 c0 -6 -9 -11 -21 -11 -13 0 -23 -10 -30 -30 -6 -16 -23
-35 -37 -42 -19 -10 -29 -24 -34 -53 -7 -31 -20 -51 -57 -83 -33 -29 -47 -48
-44 -60 3 -12 -4 -23 -20 -31 -21 -11 -26 -23 -31 -75 -10 -94 -9 -99 18 -119
20 -15 24 -24 19 -47 -4 -25 -1 -31 18 -39 31 -11 39 -6 39 25 0 13 4 24 9 24
11 0 41 -28 41 -39 0 -7 43 -31 55 -31 15 0 1 45 -20 66 -14 14 -25 30 -25 37
-1 19 -32 54 -37 41 -2 -6 -10 -20 -18 -30 -13 -18 -14 -16 -15 22 0 22 5 45
12 52 8 8 8 15 0 25 -10 11 -8 20 8 40 17 21 19 31 11 46 -15 27 -15 27 17 40
29 12 52 51 52 87 0 32 18 39 41 18 15 -13 22 -15 31 -6 9 9 3 19 -22 44 l-34
32 32 13 c28 11 38 28 33 56 0 4 6 7 14 7 17 0 20 16 5 25 -5 3 -10 1 -10 -4z"/>
<path d="M14980 7600 c0 -5 5 -10 11 -10 5 0 7 5 4 10 -3 6 -8 10 -11 10 -2 0
-4 -4 -4 -10z"/>
<path d="M15861 7574 c0 -11 3 -14 6 -6 3 7 2 16 -1 19 -3 4 -6 -2 -5 -13z"/>
<path d="M14990 7501 c0 -5 7 -11 15 -15 9 -3 15 0 15 9 0 8 -7 15 -15 15 -8
0 -15 -4 -15 -9z"/>
<path d="M15054 7435 c-4 -9 -2 -21 3 -26 14 -14 45 1 41 20 -4 22 -37 26 -44
6z"/>
<path d="M15174 7362 c-13 -8 -6 -72 7 -72 15 0 20 22 11 52 -4 17 -11 25 -18
20z"/>
<path d="M21570 7340 c0 -5 5 -10 10 -10 6 0 10 5 10 10 0 6 -4 10 -10 10 -5
0 -10 -4 -10 -10z"/>
<path d="M14998 7326 c-10 -7 -18 -18 -18 -24 0 -5 -8 -8 -17 -6 -10 3 -31 -7
-47 -21 -16 -14 -33 -25 -38 -25 -4 0 -8 -9 -8 -21 0 -15 4 -19 16 -15 9 3 20
6 25 6 5 0 9 7 9 15 0 13 19 20 43 16 5 -1 11 8 14 19 3 11 18 27 34 36 30 15
39 34 17 34 -7 0 -21 -7 -30 -14z"/>
<path d="M21529 7292 c-25 -31 -40 -63 -34 -72 11 -19 24 -10 41 28 10 20 19
40 21 44 8 16 -16 16 -28 0z"/>
<path d="M15084 7256 c-3 -8 -4 -25 -2 -37 3 -22 4 -22 21 -5 9 10 17 26 17
37 0 22 -28 26 -36 5z"/>
<path d="M15332 7219 c2 -7 10 -15 17 -17 8 -3 12 1 9 9 -2 7 -10 15 -17 17
-8 3 -12 -1 -9 -9z"/>
<path d="M14867 7163 c-22 -21 12 -103 43 -103 22 0 25 11 10 38 -5 9 -14 29
-20 45 -9 27 -20 33 -33 20z"/>
<path d="M15485 7129 c-4 -11 -4 -23 0 -27 7 -7 25 17 25 36 0 20 -18 14 -25
-9z"/>
<path d="M15250 7123 c-39 -27 -52 -42 -45 -53 10 -15 25 -12 25 6 0 9 14 21
30 27 17 6 30 17 30 24 0 17 -11 16 -40 -4z"/>
<path d="M14660 7041 c0 -17 23 -61 32 -61 17 0 7 46 -12 58 -11 7 -20 8 -20
3z"/>
<path d="M15163 7004 c-4 -11 -2 -19 6 -22 7 -2 16 -15 21 -28 5 -13 16 -24
25 -24 23 0 18 -34 -10 -58 -31 -27 -35 -27 -35 -1 0 17 -4 19 -17 13 -21 -9
-64 -9 -110 1 -33 7 -38 2 -33 -34 3 -22 -77 -7 -106 20 -13 12 -25 21 -27 18
-22 -32 -28 -59 -18 -78 16 -29 50 -46 64 -32 17 17 34 13 40 -9 7 -28 91 -29
121 -1 24 22 114 71 130 71 6 0 39 26 73 58 61 56 80 91 56 99 -7 3 -13 -2
-13 -11 0 -9 -5 -16 -11 -16 -6 0 -22 -9 -36 -20 -38 -30 -56 -26 -51 10 3 22
1 30 -10 30 -9 0 -24 7 -34 16 -16 16 -18 15 -25 -2z m-90 -186 c-10 -17 -31
-7 -26 11 4 16 8 17 18 8 7 -7 11 -15 8 -19z"/>
<path d="M14971 6996 c-7 -8 -23 -17 -36 -20 -28 -7 -33 -31 -9 -40 19 -7 44
10 44 29 0 7 7 15 15 19 16 6 21 26 6 26 -5 0 -14 -6 -20 -14z"/>
<path d="M15084 6975 c-16 -13 -17 -16 -4 -25 33 -22 88 -5 77 24 -8 20 -47
21 -73 1z"/>
<path d="M14802 6908 c-17 -17 -15 -68 3 -68 11 0 14 10 12 40 -1 22 -2 40 -2
40 -1 0 -6 -5 -13 -12z"/>
<path d="M19957 6524 c-4 -4 -7 -18 -7 -31 0 -17 5 -24 17 -21 9 2 18 8 20 13
5 15 -21 48 -30 39z"/>
<path d="M20053 6494 c-12 -5 -38 -72 -31 -79 12 -12 48 11 59 39 7 17 14 34
17 39 4 8 -26 8 -45 1z"/>
<path d="M20185 6389 c-10 -15 1 -23 20 -15 9 3 13 10 10 16 -8 13 -22 13 -30
-1z"/>
<path d="M20080 6375 c0 -8 5 -15 10 -15 6 0 10 7 10 15 0 8 -4 15 -10 15 -5
0 -10 -7 -10 -15z"/>
<path d="M20000 6340 c0 -11 3 -20 8 -20 4 0 15 -12 24 -27 l16 -28 8 29 c6
24 3 33 -16 48 -29 23 -40 23 -40 -2z"/>
<path d="M20476 6215 c-19 -28 -20 -35 -6 -35 15 0 50 33 50 47 0 22 -27 14
-44 -12z"/>
<path d="M20081 6214 c0 -11 3 -14 6 -6 3 7 2 16 -1 19 -3 4 -6 -2 -5 -13z"/>
<path d="M20522 6168 c-7 -7 -12 -18 -12 -25 0 -11 4 -11 20 -1 11 7 20 18 20
25 0 16 -12 17 -28 1z"/>
<path d="M20131 6124 c-53 -16 -72 -31 -64 -50 7 -18 52 -18 59 0 3 8 19 20
35 26 16 7 29 19 29 26 0 16 -1 16 -59 -2z"/>
</g>
</svg>
