<?xml version="1.0" standalone="no"?>
<!DOCTYPE svg PUBLIC "-//W3C//DTD SVG 20010904//EN"
 "http://www.w3.org/TR/2001/REC-SVG-20010904/DTD/svg10.dtd">
<svg version="1.0" xmlns="http://www.w3.org/2000/svg"
 width="3840.000000pt" height="2160.000000pt" viewBox="0 0 3840.000000 2160.000000"
 preserveAspectRatio="xMidYMid meet">

<g transform="translate(0.000000,2160.000000) scale(0.100000,-0.100000)"
fill="#000000" stroke="none">
<path d="M23895 14580 c-96 -5 -145 -19 -145 -41 0 -5 -6 -9 -12 -7 -16 4 -58
-25 -115 -79 -25 -24 -49 -43 -54 -43 -5 0 -12 -12 -15 -26 -4 -17 -18 -31
-40 -40 -18 -7 -42 -27 -54 -44 -12 -16 -28 -30 -35 -30 -8 0 -26 -16 -41 -35
-15 -20 -32 -34 -38 -32 -6 2 -19 -7 -29 -20 -10 -13 -25 -23 -32 -23 -8 0
-23 -13 -35 -30 -12 -16 -27 -30 -35 -30 -7 0 -28 -18 -45 -40 -17 -22 -38
-40 -46 -40 -7 0 -20 -13 -28 -28 -8 -15 -26 -33 -40 -40 -15 -6 -31 -23 -36
-37 -5 -13 -24 -31 -42 -38 -18 -8 -39 -26 -47 -40 -8 -15 -24 -29 -35 -33
-12 -3 -33 -18 -48 -32 -16 -14 -28 -22 -28 -18 0 4 -12 -6 -26 -23 -14 -17
-32 -31 -39 -31 -8 0 -22 -14 -32 -30 -10 -17 -28 -33 -40 -36 -12 -3 -31 -21
-42 -40 -11 -19 -25 -34 -31 -34 -14 0 -114 -101 -123 -123 -4 -10 -20 -23
-36 -28 -21 -7 -33 -21 -41 -44 -7 -23 -18 -35 -33 -37 -26 -4 -46 -52 -46
-114 -1 -30 -7 -46 -26 -62 l-25 -22 2 -3377 3 -3378 21 -21 c16 -16 22 -39
27 -95 9 -94 16 -119 34 -119 8 0 25 -13 39 -29 14 -16 35 -31 47 -33 12 -2
27 -14 34 -28 6 -13 22 -29 35 -35 33 -15 4920 -19 4965 -4 18 6 42 24 54 40
11 16 29 29 38 29 10 0 24 7 31 15 7 8 18 15 24 15 6 0 24 13 41 30 72 71 116
110 126 110 5 0 16 15 24 34 10 24 23 36 43 41 16 3 35 18 45 35 10 16 27 32
39 36 12 3 32 20 46 36 13 16 27 27 30 24 5 -6 46 24 102 74 101 91 147 137
153 152 3 10 22 24 41 32 19 8 39 23 45 35 11 19 38 38 93 63 15 6 32 22 39
35 7 13 23 26 36 29 12 3 32 21 44 40 11 19 27 34 34 34 7 0 27 18 45 39 17
22 39 43 50 46 10 3 22 15 25 26 4 12 22 27 41 35 19 8 40 26 46 39 6 14 19
25 29 25 25 0 52 44 44 70 -3 11 -16 25 -27 31 -19 10 -25 7 -49 -22 -15 -19
-31 -34 -36 -34 -4 -1 -24 -11 -43 -24 -29 -18 -44 -21 -86 -17 -28 3 -1134 6
-2457 6 l-2406 0 -27 35 c-14 19 -32 35 -39 35 -26 0 -42 30 -49 90 -6 49 -13
67 -34 87 l-27 25 0 3386 c0 1863 4 3404 8 3425 4 21 12 35 18 32 11 -8 19 12
33 83 10 50 14 55 46 66 29 9 36 17 40 46 4 28 9 34 25 32 11 -2 24 -7 29 -12
4 -4 22 -4 39 1 44 13 4848 12 4881 -1 16 -6 27 -6 31 0 11 19 23 10 35 -24
16 -51 34 -62 66 -42 33 22 27 47 -15 67 -19 9 -40 27 -47 41 -10 19 -24 27
-56 32 -65 8 -167 10 -175 3 -9 -10 -4540 -9 -4561 1 -9 4 -62 5 -117 2z"/>
<path d="M10973 14571 c-80 -7 -104 -20 -77 -42 14 -11 146 -13 808 -12 435 2
868 -1 961 -5 138 -6 174 -5 193 6 23 15 29 36 13 46 -16 10 -206 14 -217 5
-12 -10 -1511 -6 -1574 3 -19 3 -67 3 -107 -1z"/>
<path d="M10796 14481 c-17 -18 -17 -20 3 -40 27 -27 42 -26 71 4 19 20 21 27
10 40 -17 21 -63 19 -84 -4z"/>
<path d="M12933 14479 c-32 -12 -28 -26 11 -43 27 -11 35 -21 41 -52 4 -21 11
-47 17 -57 9 -18 10 -18 23 0 15 18 19 70 9 96 -3 9 -13 13 -24 10 -12 -3 -20
2 -24 15 -10 30 -28 41 -53 31z"/>
<path d="M10715 14410 c-10 -11 -24 -20 -31 -20 -7 0 -21 -14 -31 -30 -9 -17
-26 -33 -36 -36 -26 -8 -103 -85 -111 -111 -4 -13 -21 -26 -42 -33 -21 -7 -40
-22 -47 -37 -6 -13 -24 -31 -39 -39 -16 -8 -34 -26 -40 -40 -6 -13 -22 -27
-35 -30 -13 -4 -35 -20 -49 -38 -18 -21 -27 -27 -31 -18 -3 9 -12 3 -24 -17
-10 -17 -27 -31 -38 -31 -11 0 -27 -14 -40 -35 -11 -19 -27 -35 -35 -35 -8 0
-27 -16 -41 -35 -15 -19 -35 -37 -45 -40 -10 -3 -20 -16 -22 -28 -2 -14 -17
-29 -41 -41 -21 -10 -43 -29 -49 -42 -6 -12 -24 -28 -40 -35 -16 -6 -36 -25
-44 -40 -8 -16 -23 -29 -33 -29 -10 0 -26 -9 -36 -20 -10 -11 -24 -20 -31 -20
-7 0 -22 -13 -34 -29 -11 -17 -29 -33 -40 -36 -10 -3 -28 -21 -39 -40 -12 -21
-28 -35 -40 -35 -14 0 -23 -13 -35 -47 -9 -26 -16 -55 -16 -66 0 -15 -5 -18
-24 -13 -21 5 -24 2 -29 -32 -3 -20 -6 -496 -7 -1057 -1 -1178 11 -1064 -104
-1039 -61 13 -71 13 -86 -1 -9 -8 -24 -15 -33 -15 -30 0 -18 -15 26 -30 31
-12 49 -13 70 -6 24 9 31 7 43 -9 8 -10 14 -31 14 -46 0 -39 20 -78 36 -72 34
13 36 -40 35 -758 -2 -388 1 -733 5 -767 6 -56 8 -61 33 -64 23 -3 27 -8 32
-55 11 -90 16 -102 40 -96 25 7 51 -20 43 -42 -9 -23 44 -49 100 -50 45 0 52
-3 63 -26 9 -18 24 -29 46 -33 26 -5 363 -8 547 -6 59 1 110 18 104 34 -8 21
17 33 81 40 71 7 91 26 101 92 7 47 29 68 45 43 5 -8 9 -12 10 -9 17 76 22
507 28 2555 3 1293 7 2351 9 2353 1 2 6 0 12 -3 11 -7 16 11 33 134 13 88 12
96 -5 113 -23 23 -31 23 -53 -2z"/>
<path d="M28917 14402 c-11 -12 -17 -36 -17 -63 0 -41 26 -198 34 -206 4 -4
10 44 22 169 6 69 0 118 -15 118 -4 0 -15 -8 -24 -18z"/>
<path d="M13084 14205 c-12 -27 -12 -5224 0 -5250 8 -16 11 -10 17 35 10 74 9
5178 -1 5210 -7 24 -8 24 -16 5z"/>
<path d="M29005 13530 c0 -333 1 -469 2 -302 2 166 2 438 0 605 -1 166 -2 30
-2 -303z"/>
<path d="M15465 14047 c-4 -10 -5 -21 -1 -24 10 -10 18 4 13 24 -4 17 -4 17
-12 0z"/>
<path d="M15310 13708 c0 -13 6 -18 18 -16 9 2 17 10 17 17 0 8 -8 15 -17 17
-12 1 -18 -4 -18 -18z"/>
<path d="M15240 13630 c0 -13 5 -18 15 -14 8 4 15 12 15 20 0 8 -7 14 -15 14
-8 0 -15 -9 -15 -20z"/>
<path d="M20585 13590 c-3 -5 -2 -10 4 -10 5 0 13 5 16 10 3 6 2 10 -4 10 -5
0 -13 -4 -16 -10z"/>
<path d="M15160 13555 c0 -8 7 -15 15 -15 8 0 15 7 15 15 0 8 -7 15 -15 15 -8
0 -15 -7 -15 -15z"/>
<path d="M11861 13542 c-11 -22 -10 -4323 2 -4449 3 -34 9 -72 13 -85 l7 -23
9 25 c6 16 9 868 8 2275 -1 1875 -3 2252 -15 2264 -11 11 -15 10 -24 -7z"/>
<path d="M24760 13553 c-1 -16 -7 -2591 -7 -2678 1 -49 2 -688 3 -1420 l3
-1330 1616 -3 c1436 -2 1616 0 1621 13 4 8 1 22 -6 30 -11 13 -204 15 -1574
15 l-1563 0 -21 23 -22 23 0 1271 c0 874 3 1280 11 1300 5 15 16 31 22 35 7 4
544 8 1193 8 l1182 0 5 22 c3 12 2 29 -4 39 -9 18 -61 18 -1182 19 -644 0
-1178 0 -1185 0 -7 0 -20 16 -28 35 -12 29 -14 213 -14 1268 0 1210 0 1234 19
1252 19 16 102 17 1565 16 1361 -2 1549 0 1581 13 32 14 35 18 25 36 -11 20
-13 20 -1625 20 -888 0 -1615 -3 -1615 -7z"/>
<path d="M15090 13485 c-14 -17 -5 -36 15 -28 16 6 21 43 6 43 -5 0 -14 -7
-21 -15z"/>
<path d="M20040 13430 c0 -5 7 -10 15 -10 8 0 15 5 15 10 0 6 -7 10 -15 10 -8
0 -15 -4 -15 -10z"/>
<path d="M15014 13406 c-8 -22 3 -33 18 -18 9 9 9 15 0 24 -9 9 -13 7 -18 -6z"/>
<path d="M19971 13363 c-1 -17 16 -25 25 -12 4 7 3 9 -4 5 -5 -3 -13 0 -15 6
-4 9 -6 10 -6 1z"/>
<path d="M14942 13331 c-10 -6 -10 -10 3 -21 13 -11 15 -9 15 9 0 24 0 24 -18
12z"/>
<path d="M13933 13274 c0 -16 13 -19 21 -5 3 5 0 11 -7 14 -8 3 -14 -1 -14 -9z"/>
<path d="M14865 13249 c-4 -6 -5 -13 -2 -16 7 -7 27 6 27 18 0 12 -17 12 -25
-2z"/>
<path d="M14790 13164 c0 -8 6 -11 15 -8 8 4 15 9 15 13 0 4 -7 8 -15 8 -8 0
-15 -6 -15 -13z"/>
<path d="M14710 13085 c0 -8 5 -15 10 -15 6 0 10 7 10 15 0 8 -4 15 -10 15 -5
0 -10 -7 -10 -15z"/>
<path d="M14633 13015 c-7 -20 2 -29 21 -22 9 4 13 13 10 22 -8 19 -23 19 -31
0z"/>
<path d="M28927 12925 c-3 -16 -11 -66 -18 -110 -15 -105 -23 -130 -40 -130
-8 -1 -28 -15 -46 -33 -18 -18 -42 -32 -55 -32 -13 0 -48 -16 -78 -35 l-54
-35 -1361 0 c-1077 0 -1365 -3 -1378 -13 -16 -11 -17 -39 -14 -337 2 -179 8
-341 13 -360 l10 -35 1004 -6 c557 -3 1019 -10 1037 -15 49 -14 109 -70 128
-120 19 -49 29 -54 54 -22 15 17 16 29 9 61 -14 63 -26 80 -53 73 -22 -6 -24
-2 -30 48 -9 70 -2 89 38 107 17 8 38 26 45 41 7 15 23 30 35 34 12 3 34 18
50 32 15 14 27 22 27 17 0 -5 13 5 29 23 17 17 36 32 43 32 7 0 23 16 36 35
12 19 28 35 36 35 7 0 25 15 40 34 14 19 35 38 46 41 11 3 23 18 26 32 4 16
19 30 40 39 19 8 41 25 50 39 9 13 25 27 37 31 12 4 27 13 35 20 7 8 19 14 27
14 7 0 25 16 39 35 15 19 33 35 41 35 8 0 22 11 31 26 9 14 30 32 45 40 20 10
32 27 39 54 8 29 16 40 30 40 11 0 24 9 30 19 14 26 12 131 -4 211 -11 57 -13
61 -19 35z"/>
<path d="M14560 12925 c0 -9 6 -12 15 -9 8 4 15 10 15 15 0 5 -7 9 -15 9 -8 0
-15 -7 -15 -15z"/>
<path d="M18610 11790 c0 -5 7 -10 15 -10 8 0 15 5 15 10 0 6 -7 10 -15 10 -8
0 -15 -4 -15 -10z"/>
<path d="M18540 11710 c0 -5 5 -10 10 -10 6 0 10 5 10 10 0 6 -4 10 -10 10 -5
0 -10 -4 -10 -10z"/>
<path d="M28165 11617 c-19 -31 -20 -54 -20 -727 0 -671 1 -697 19 -725 l20
-30 13 33 c11 27 13 166 11 740 -2 465 -7 713 -13 724 -10 16 -13 14 -30 -15z"/>
<path d="M14010 11446 c0 -9 5 -16 10 -16 6 0 10 4 10 9 0 6 -4 13 -10 16 -5
3 -10 -1 -10 -9z"/>
<path d="M19240 11445 c-10 -12 -10 -15 4 -15 9 0 16 7 16 15 0 8 -2 15 -4 15
-2 0 -9 -7 -16 -15z"/>
<path d="M14087 11383 c-3 -5 -2 -15 2 -22 7 -10 10 -10 16 -1 4 6 3 16 -3 22
-5 5 -12 6 -15 1z"/>
<path d="M19160 11370 c0 -5 4 -10 9 -10 6 0 13 5 16 10 3 6 -1 10 -9 10 -9 0
-16 -4 -16 -10z"/>
<path d="M14166 11297 c3 -10 9 -15 12 -12 3 3 0 11 -7 18 -10 9 -11 8 -5 -6z"/>
<path d="M14236 11215 c-3 -9 0 -15 9 -15 16 0 20 16 6 24 -5 3 -11 -1 -15 -9z"/>
<path d="M7683 11193 c9 -2 23 -2 30 0 6 3 -1 5 -18 5 -16 0 -22 -2 -12 -5z"/>
<path d="M7373 11142 c-35 -17 -41 -36 -18 -65 13 -18 16 -18 74 5 61 23 77
38 42 38 -10 0 -29 8 -42 19 -22 17 -26 17 -56 3z"/>
<path d="M14300 11141 c0 -11 26 -22 34 -14 3 3 3 10 0 14 -7 12 -34 11 -34 0z"/>
<path d="M14386 11055 c4 -8 10 -15 15 -15 5 0 9 7 9 15 0 8 -7 15 -15 15 -9
0 -12 -6 -9 -15z"/>
<path d="M7243 11025 c-9 -19 -23 -35 -31 -35 -8 0 -29 -17 -48 -37 -19 -20
-37 -34 -40 -30 -4 3 -15 -5 -26 -18 -11 -14 -27 -25 -36 -25 -9 0 -25 -14
-34 -30 -9 -17 -24 -30 -32 -30 -8 0 -27 -16 -41 -35 -15 -19 -35 -37 -44 -40
-10 -3 -24 -20 -32 -38 -9 -20 -22 -33 -37 -35 -14 -2 -32 -17 -43 -37 -11
-18 -31 -36 -44 -39 -13 -3 -33 -20 -45 -36 -12 -17 -27 -30 -34 -30 -7 0 -21
-9 -31 -20 -10 -11 -25 -20 -34 -20 -9 0 -24 -13 -33 -30 -9 -16 -28 -32 -41
-35 -13 -4 -30 -16 -36 -28 -6 -12 -25 -30 -41 -39 -17 -9 -30 -25 -30 -36 0
-23 -19 -42 -42 -42 -11 0 -28 -15 -39 -35 -12 -19 -32 -38 -45 -41 -14 -4
-31 -19 -40 -35 -8 -16 -26 -32 -39 -35 -14 -3 -35 -18 -46 -32 -14 -18 -22
-23 -28 -14 -4 8 -13 1 -25 -19 -10 -17 -29 -34 -42 -39 -13 -5 -32 -25 -41
-45 -10 -21 -24 -35 -34 -35 -42 0 -44 -40 -44 -940 0 -838 7 -1323 21 -1367
3 -13 13 -23 20 -23 24 0 36 -49 42 -170 6 -106 9 -115 27 -115 35 0 42 -13
48 -88 7 -84 14 -107 32 -107 26 0 45 -36 45 -89 0 -56 14 -96 31 -85 16 10
36 -14 43 -51 5 -25 15 -39 35 -50 21 -10 31 -26 40 -60 8 -30 16 -45 26 -43
7 2 14 -1 13 -6 0 -5 5 -12 11 -15 6 -4 17 -25 24 -46 10 -30 20 -41 38 -43
29 -4 49 -28 49 -58 0 -14 8 -25 19 -29 11 -3 31 -21 46 -40 14 -19 32 -35 40
-35 8 0 21 -13 29 -29 14 -26 85 -71 112 -71 6 0 20 -13 32 -30 14 -19 32 -30
47 -30 26 0 55 -24 55 -46 0 -19 60 -45 88 -37 26 6 52 -12 52 -38 0 -23 30
-40 73 -41 59 -1 77 -8 77 -27 0 -31 24 -41 98 -44 69 -3 102 -16 102 -42 0
-7 8 -16 18 -20 24 -10 149 -26 194 -25 27 1 40 -5 47 -18 6 -11 8 -22 5 -25
-12 -12 77 -27 148 -26 131 3 258 -20 258 -46 0 -7 17 -16 43 -20 23 -3 384
-9 802 -11 789 -5 983 1 971 32 -3 9 3 15 17 18 67 13 170 24 226 25 86 0 171
19 171 36 0 27 43 43 111 42 73 -1 131 17 123 38 -10 24 37 44 98 42 60 -1 88
13 88 44 0 19 40 36 58 26 4 -3 28 -1 51 5 34 9 45 17 53 39 10 28 31 38 42
20 3 -4 28 3 56 16 35 16 50 30 50 43 0 13 9 22 28 25 15 4 35 10 44 16 10 5
24 9 32 9 8 0 24 12 36 27 11 15 34 35 50 45 17 10 30 26 30 37 0 13 11 23 35
31 22 7 41 23 50 41 9 16 27 32 40 35 14 3 35 19 46 35 11 16 25 27 30 23 5
-3 19 6 30 20 11 14 26 26 34 26 7 0 25 16 39 35 15 19 31 35 36 35 15 0 108
96 112 115 2 12 16 23 36 29 21 6 39 20 48 37 8 16 26 32 40 35 13 4 31 19 40
35 13 26 25 34 46 30 4 0 12 8 18 19 6 11 20 20 31 20 12 0 28 14 40 35 12 19
27 35 34 35 19 0 115 95 115 114 0 8 16 20 35 26 22 7 41 23 50 41 9 16 26 31
40 35 14 3 28 17 34 35 8 23 16 29 38 29 18 1 34 9 45 25 16 21 16 25 2 39
-30 30 -94 7 -94 -33 0 -8 -6 -11 -16 -7 -9 4 -24 0 -33 -8 -9 -8 -40 -20 -70
-28 -40 -9 -55 -18 -57 -32 -4 -31 -22 -40 -69 -38 -58 2 -95 -12 -95 -37 0
-27 -15 -34 -80 -37 -70 -3 -143 -22 -134 -35 3 -6 -2 -19 -11 -29 -12 -13
-30 -18 -73 -17 -90 0 -190 -21 -188 -41 2 -24 -90 -40 -225 -41 -113 0 -200
-16 -196 -34 1 -6 -16 -17 -38 -25 -33 -13 -156 -16 -710 -19 -852 -5 -1066 5
-1040 47 9 15 -89 30 -225 34 -138 5 -205 18 -196 41 6 16 -88 37 -168 37 -62
0 -96 16 -96 44 0 17 -69 36 -138 38 -52 2 -71 13 -72 44 0 18 -41 31 -93 29
-48 -2 -67 8 -71 39 -2 14 -17 22 -52 31 -27 7 -57 17 -66 22 -10 6 -24 8 -31
5 -9 -3 -23 7 -37 25 -12 17 -30 31 -41 31 -23 0 -62 37 -54 50 3 6 -10 20
-30 31 -19 12 -40 30 -46 41 -6 10 -21 23 -34 28 -13 5 -29 21 -37 37 -7 15
-24 33 -37 40 -14 6 -32 27 -41 45 -8 18 -22 33 -30 33 -8 0 -26 17 -39 38
-13 20 -32 37 -41 37 -25 0 -40 21 -40 56 0 44 -16 84 -34 84 -23 0 -46 40
-46 80 0 53 -10 80 -30 80 -29 0 -37 20 -43 105 -7 94 -13 116 -32 109 -22 -9
-36 58 -45 216 -5 80 -9 159 -9 177 -1 17 -9 39 -18 48 -9 10 -21 38 -26 64
-11 55 -22 1728 -12 1890 6 99 10 117 29 135 12 12 32 48 45 81 21 56 21 60 5
72 -31 22 -53 15 -71 -22z"/>
<path d="M17930 11009 c0 -5 5 -7 10 -4 6 3 10 8 10 11 0 2 -4 4 -10 4 -5 0
-10 -5 -10 -11z"/>
<path d="M14460 10982 c0 -5 7 -13 16 -16 10 -4 14 -1 12 6 -5 15 -28 23 -28
10z"/>
<path d="M17860 10935 c0 -8 5 -15 10 -15 6 0 10 7 10 15 0 8 -4 15 -10 15 -5
0 -10 -7 -10 -15z"/>
<path d="M14530 10906 c0 -8 7 -16 15 -20 10 -4 15 1 15 14 0 11 -7 20 -15 20
-8 0 -15 -6 -15 -14z"/>
<path d="M14610 10826 c0 -9 7 -16 16 -16 17 0 14 22 -4 28 -7 2 -12 -3 -12
-12z"/>
<path d="M14680 10755 c0 -16 27 -32 37 -21 7 7 -16 36 -28 36 -5 0 -9 -7 -9
-15z"/>
<path d="M14760 10665 c0 -9 5 -15 11 -13 6 2 11 8 11 13 0 5 -5 11 -11 13 -6
2 -11 -4 -11 -13z"/>
<path d="M14832 10598 c5 -15 28 -18 29 -3 0 6 -7 12 -17 13 -10 3 -15 -1 -12
-10z"/>
<path d="M18485 10590 c-3 -5 -2 -10 4 -10 5 0 13 5 16 10 3 6 2 10 -4 10 -5
0 -13 -4 -16 -10z"/>
<path d="M17180 10150 c0 -5 5 -10 10 -10 6 0 10 5 10 10 0 6 -4 10 -10 10 -5
0 -10 -4 -10 -10z"/>
<path d="M28094 10128 c-5 -7 -16 -26 -24 -41 -8 -16 -27 -35 -42 -43 -19 -10
-28 -22 -28 -40 0 -22 -4 -25 -37 -26 -21 -1 -492 -3 -1047 -4 -680 -3 -1013
-7 -1021 -14 -20 -17 -21 -802 -2 -819 17 -14 2800 -12 2830 3 23 11 22 23 -5
38 -21 12 -466 17 -1425 18 -45 0 -76 21 -71 49 2 8 22 26 45 39 23 13 45 32
48 42 4 11 17 23 31 26 13 3 35 20 49 36 14 17 28 28 32 25 3 -4 14 5 25 18
11 14 25 25 33 25 7 0 25 16 39 35 15 19 32 35 38 35 13 0 118 106 118 120 0
6 16 18 35 26 20 8 41 25 47 39 6 13 23 28 39 34 15 5 35 21 44 35 10 14 23
26 30 26 6 0 20 9 30 20 10 11 24 20 31 20 7 0 26 16 41 35 15 19 34 35 40 35
7 0 25 18 39 40 15 22 33 40 40 40 31 0 47 89 21 124 -11 14 -15 15 -23 4z"/>
<path d="M8320 10105 c-9 -11 -11 -118 -7 -452 3 -241 10 -460 14 -488 l9 -50
7 70 c10 102 9 923 -2 929 -5 3 -14 -1 -21 -9z"/>
<path d="M20518 9853 c7 -3 16 -2 19 1 4 3 -2 6 -13 5 -11 0 -14 -3 -6 -6z"/>
<path d="M17800 9803 c0 -8 5 -13 12 -11 18 6 21 25 3 25 -8 0 -15 -7 -15 -14z"/>
<path d="M20597 9766 c-3 -8 -2 -18 4 -22 16 -9 22 2 11 21 -8 15 -10 16 -15
1z"/>
<path d="M17725 9730 c-3 -6 1 -7 9 -4 18 7 21 14 7 14 -6 0 -13 -4 -16 -10z"/>
<path d="M20672 9686 c1 -10 8 -17 13 -17 15 1 12 24 -3 29 -9 3 -13 -2 -10
-12z"/>
<path d="M20742 9608 c3 -7 13 -15 22 -16 12 -3 17 1 14 10 -3 7 -13 15 -22
16 -12 3 -17 -1 -14 -10z"/>
<path d="M20820 9530 c0 -14 7 -20 21 -20 15 0 19 4 15 16 -3 9 -6 18 -6 20 0
2 -7 4 -15 4 -8 0 -15 -9 -15 -20z"/>
<path d="M20890 9451 c0 -5 7 -12 16 -15 22 -9 24 -8 24 9 0 8 -9 15 -20 15
-11 0 -20 -4 -20 -9z"/>
<path d="M16500 9375 c0 -8 5 -15 10 -15 6 0 10 7 10 15 0 8 -4 15 -10 15 -5
0 -10 -7 -10 -15z"/>
<path d="M20967 9384 c-9 -10 12 -34 30 -34 19 0 12 34 -8 38 -8 1 -18 0 -22
-4z"/>
<path d="M16420 9301 c0 -5 7 -11 15 -15 9 -3 15 0 15 9 0 8 -7 15 -15 15 -8
0 -15 -4 -15 -9z"/>
<path d="M21042 9298 c5 -15 28 -18 29 -3 0 6 -7 12 -17 13 -10 3 -15 -1 -12
-10z"/>
<path d="M21120 9215 c0 -8 7 -15 15 -15 8 0 15 7 15 15 0 8 -7 15 -15 15 -8
0 -15 -7 -15 -15z"/>
<path d="M21200 9140 c0 -11 7 -20 15 -20 8 0 15 6 15 14 0 8 -7 16 -15 20
-10 4 -15 -1 -15 -14z"/>
<path d="M28766 9118 c-24 -22 -27 -30 -17 -41 6 -8 23 -18 36 -21 13 -3 33
-20 45 -36 12 -17 30 -30 40 -30 20 0 19 4 41 -150 19 -132 25 -136 39 -25 17
140 12 186 -21 202 -15 7 -32 26 -39 43 -7 17 -31 43 -54 58 l-41 27 -29 -27z"/>
<path d="M21270 9062 c0 -15 5 -19 20 -15 24 6 21 26 -3 31 -11 2 -17 -3 -17
-16z"/>
<path d="M17120 9036 c0 -9 5 -16 10 -16 6 0 10 4 10 9 0 6 -4 13 -10 16 -5 3
-10 -1 -10 -9z"/>
<path d="M8408 9028 c-11 -29 -21 -184 -14 -222 4 -22 13 -36 21 -36 8 0 15 1
15 3 10 65 8 191 -2 227 -10 32 -16 40 -20 28z"/>
<path d="M17050 8960 c0 -5 7 -10 16 -10 8 0 12 5 9 10 -3 6 -10 10 -16 10 -5
0 -9 -4 -9 -10z"/>
<path d="M11791 8927 c-22 -55 -9 -167 18 -167 12 0 31 56 31 89 0 14 -9 44
-19 66 l-19 40 -11 -28z"/>
<path d="M8473 8783 c-16 -6 -17 -107 -2 -150 8 -23 15 -30 29 -26 21 6 25 -1
35 -59 4 -28 12 -39 32 -45 17 -6 29 -20 37 -43 6 -19 18 -36 26 -36 8 -1 21
-2 28 -3 7 0 18 -15 24 -32 10 -29 13 -30 57 -28 l46 3 -3 -35 c-2 -29 2 -37
29 -53 30 -18 31 -18 55 5 29 27 30 37 7 46 -19 7 -79 55 -128 104 -17 16 -34
27 -37 24 -3 -4 -20 14 -38 39 -17 25 -35 46 -40 46 -5 0 -21 23 -35 51 -20
38 -30 49 -42 45 -20 -8 -33 10 -33 48 0 33 -20 106 -29 105 -3 0 -12 -3 -18
-6z"/>
<path d="M11710 8705 c-14 -41 1 -95 26 -95 22 0 21 81 -1 113 -12 17 -14 16
-25 -18z"/>
<path d="M29005 8135 c0 -330 1 -464 2 -297 2 167 2 437 0 600 -1 163 -2 27
-2 -303z"/>
<path d="M13002 8675 c-23 -103 -24 -135 -7 -207 20 -79 29 -76 42 13 6 38 4
83 -7 149 l-16 95 -12 -50z"/>
<path d="M11642 8553 c2 -26 8 -38 18 -38 10 0 16 12 18 38 3 32 0 37 -18 37
-18 0 -21 -5 -18 -37z"/>
<path d="M15752 8521 c-11 -7 -11 -9 2 -14 10 -4 16 -1 16 8 0 17 -1 17 -18 6z"/>
<path d="M11554 8465 c-8 -31 6 -48 32 -43 29 5 26 62 -3 66 -17 3 -24 -3 -29
-23z"/>
<path d="M11476 8394 c-8 -20 11 -44 34 -44 18 0 30 19 30 46 0 20 -56 18 -64
-2z"/>
<path d="M12922 8321 c-21 -69 -11 -171 17 -171 12 0 31 47 31 76 0 24 -28
134 -34 134 -2 0 -8 -17 -14 -39z"/>
<path d="M11372 8318 c-35 -22 -42 -31 -16 -21 12 5 15 0 12 -23 -3 -31 -34
-42 -32 -11 1 12 -2 15 -10 9 -6 -6 -27 -13 -46 -17 -52 -11 -77 -25 -59 -35
41 -23 133 -10 150 21 5 11 25 26 44 34 41 16 45 37 12 52 -19 9 -30 7 -55 -9z"/>
<path d="M8931 8247 c-17 -19 -19 -26 -9 -35 25 -20 63 -23 93 -8 17 9 36 16
43 16 26 0 1 18 -47 34 -61 20 -53 20 -80 -7z"/>
<path d="M9185 8180 c-4 -6 -21 -10 -39 -10 -18 0 -41 -6 -51 -14 -18 -13 -16
-15 25 -26 25 -6 57 -15 72 -20 19 -5 31 -4 38 5 6 8 25 17 41 20 41 9 36 22
-13 35 -24 6 -48 13 -55 15 -7 2 -15 0 -18 -5z"/>
<path d="M16370 8176 c0 -9 5 -16 10 -16 6 0 10 4 10 9 0 6 -4 13 -10 16 -5 3
-10 -1 -10 -9z"/>
<path d="M11048 8168 c-35 -12 -36 -24 -3 -32 14 -4 25 -11 25 -17 0 -13 78
-2 98 13 20 17 14 23 -33 36 -52 14 -51 14 -87 0z"/>
<path d="M12841 8108 c-10 -29 -8 -41 8 -78 18 -40 20 -41 30 -22 17 31 13 84
-8 111 l-18 24 -12 -35z"/>
<path d="M9480 8099 c-8 -4 -46 -11 -85 -15 -69 -7 -69 -7 -39 -20 40 -17 163
-33 170 -22 3 4 26 8 52 8 26 0 65 5 87 12 l40 11 -45 12 c-63 16 -162 24
-180 14z"/>
<path d="M10765 8099 c-128 -8 -188 -19 -160 -30 11 -4 32 -8 47 -8 15 -1 33
-7 40 -14 10 -10 36 -11 108 -6 52 4 105 11 117 14 26 8 21 25 -7 25 -10 0
-25 6 -32 13 -9 9 -40 10 -113 6z"/>
<path d="M21030 8095 c0 -8 5 -15 10 -15 6 0 10 7 10 15 0 8 -4 15 -10 15 -5
0 -10 -7 -10 -15z"/>
<path d="M12776 7984 c-16 -43 6 -152 26 -122 13 22 9 114 -6 127 -11 9 -15 8
-20 -5z"/>
<path d="M21034 7899 c-3 -6 -1 -16 5 -22 8 -8 11 -5 11 11 0 24 -5 28 -16 11z"/>
<path d="M12683 7810 c-13 -31 -21 -40 -35 -37 -13 4 -22 -5 -34 -34 -11 -24
-25 -39 -38 -41 -13 -2 -28 -18 -39 -40 -10 -21 -26 -38 -35 -38 -8 0 -30 -15
-47 -32 -18 -18 -42 -40 -54 -48 l-22 -15 25 -33 24 -34 17 26 c9 14 25 28 35
31 10 3 25 24 34 46 13 32 20 39 35 34 15 -5 23 3 37 34 11 26 25 41 38 43 13
2 28 18 39 41 12 23 26 37 37 37 40 0 55 91 17 98 -13 3 -22 -7 -34 -38z"/>
<path d="M15070 7740 c0 -5 5 -10 10 -10 6 0 10 5 10 10 0 6 -4 10 -10 10 -5
0 -10 -4 -10 -10z"/>
<path d="M28917 7465 c-25 -117 -25 -184 -2 -201 27 -20 32 -18 45 20 8 25 8
51 1 93 -6 32 -14 83 -18 113 l-8 55 -18 -80z"/>
<path d="M15690 7396 c0 -9 5 -16 10 -16 6 0 10 4 10 9 0 6 -4 13 -10 16 -5 3
-10 -1 -10 -9z"/>
<path d="M15620 7314 c0 -8 5 -12 10 -9 6 4 8 11 5 16 -9 14 -15 11 -15 -7z"/>
<path d="M21500 7235 c0 -8 5 -15 10 -15 6 0 10 7 10 15 0 8 -4 15 -10 15 -5
0 -10 -7 -10 -15z"/>
</g>
</svg>
